
<global>
amp_veltrack=0
ampeg_release=0.35
xfin_hicc1=24
xfout_hicc1=127
xfout_locc1=127
</global>

<group>
group_label=Group_0-42
lpc_hicc1=42
lpc_locc1=0

<region>
hikey=B4
hivel=127
lokey=a4
loop_end=280918
loop_mode=loop_continuous
loop_start=81910
loop_xfade=23824
lovel=1
lpc=MBztQc+oecIh91VC2+UPws9Cw0H6d8jAD+AnwFrajsAHsU5BW+RvwZCaOkEEZAjB7soDQUosHsCeWzC/7rOCwFQ370CA2tHABj+CQEfILL+VPiQ/A8U8vzXwMMCj9k1A
lpc_rms=-27.70
offset=369
pitch_keycenter=A#4
sample=Baritone_trills_major_PP_A#4.opus
</region>

<region>
hikey=d4
hivel=127
lokey=c#4
loop_end=277809
loop_mode=loop_continuous
loop_start=81003
loop_xfade=23561
lovel=1
lpc=fCNPQgz3vcLbrDJCAsekwWOUAkJR2XPBLIsuQdiATcEKvgZB8zD+wOXokz5XC5xA1IVVQEoQk8ClMNO/PJcuwO5PIUBaHAdAkwGevw4fvEBpiTjAvYNcwAW8H8BtX4JA
lpc_rms=-27.97
offset=6094
pitch_keycenter=d4
sample=Baritone_trills_major_PP_D4.opus
</region>

<region>
hikey=e4
hivel=127
lokey=d#4
loop_end=262482
loop_mode=loop_continuous
loop_start=76534
loop_xfade=22261
lovel=1
lpc=SbPhQdGPb8LEdR9CXatgwUVYI0EyaN270pN3wIY0BMD+MWZAAMNFwIzpgj896Zw+sIP7P5c8hDu4/YzAf3g8PzWvMT8BfxxADsHpPmQ4sL+wMYe+KZFQv10c7z4N6Rw/
lpc_rms=-36.91
offset=501
pitch_keycenter=e4
sample=Baritone_trills_major_PP_E4.opus
</region>

<region>
hikey=f#4
hivel=127
lokey=f4
loop_end=262713
loop_mode=loop_continuous
loop_start=76602
loop_xfade=22280
lovel=1
lpc=XbiAQprUBMN9uLpCdmVDwpqEE0JrZhnBEJtFP8ni3sANu7hASm35v/5Hhj8jFsw/ZfYxP9VTdD8OaxLBLu3zP0i3hD9G17G/MYqCQBeCyUCYXKzAqJSJv8/TR8DV5IBA
lpc_rms=-29.20
offset=39
pitch_keycenter=f#4
sample=Baritone_trills_major_PP_F#4.opus
</region>

<region>
hikey=g#4
hivel=127
lokey=g4
loop_end=277998
loop_mode=loop_continuous
loop_start=81058
loop_xfade=23577
lovel=1
lpc=DK49QmQHwsIQi4FCaQjmwZQvzUEluTjBCaMAQGGLI8C1PTRAB8BWvmSOCMFPjhpBlxGFvctjkcAVJhY/tiuWPvfdy756D0VA/tKXP5f4Vz/V5dK+qTIrwE75sMAz8sFA
lpc_rms=-26.23
offset=2384
pitch_keycenter=g#4
sample=Baritone_trills_major_PP_G#4.opus
</region>

<region>
hikey=a#2
hivel=127
lokey=a2
loop_end=280158
loop_mode=loop_continuous
loop_start=81688
loop_xfade=23760
lovel=1
lpc=fCI+QmHw18I2HbNCRpREwmkBAUJqhXfBad2bQM2tGcHSJS1BiDeYwHWiDUARaEhA1amzv8L5xr8yR/I9iG3avi6Dzb/HQNA/FMOFPxt0qD2T9dQ/c7EvwJBsc8CFK3VA
lpc_rms=-30.50
offset=2067
pitch_keycenter=a#2
sample=Baritone_trills_major_PP_A#2.opus
</region>

<region>
hikey=a#3
hivel=127
lokey=a3
loop_end=274024
loop_mode=loop_continuous
loop_start=79900
loop_xfade=23240
lovel=1
lpc=CeE1QisMysLsM5lCwVoiwlJ99EG7BjzBF1mNQKnCgcDIgzg/vSuSv4Nd7L+Af19AnuaDQPjDkMDgGZM/VXepwNvPDkB4GCZA/j0Gvy88RkDmt5/A/SCDQIg9scD0CkVA
lpc_rms=-30.44
offset=2262
pitch_keycenter=a#3
sample=Baritone_trills_major_PP_A#3.opus
</region>

<region>
hivel=127
key=c2
loop_end=281596
loop_mode=loop_continuous
loop_start=82108
loop_xfade=23882
lovel=1
lpc=QgMpQidjncKxcGdCqco4wpD820Hd6PXAjazkQE/WxMBNp+9ASlrnwGbRpkBB1xq+dAcOQDGaQcApF4lAdYTCwPLhvD8eHD/AmyVyQMPiKsDA1kQ/O7v+P5+tTj3j/Xu/
lpc_rms=-29.12
offset=4088
sample=Baritone_trills_major_PP_C2.opus
</region>

<region>
hikey=c3
hivel=127
lokey=b2
loop_end=275900
loop_mode=loop_continuous
loop_start=80447
loop_xfade=23399
lovel=1
lpc=rXA+Qm15xMJRuoVCP5D3wccBv0GDkkrBwJ6qQLG7FMEhJGtBP0CDwe4OUkGQwCi/6uwHwCRJdkAIGaTAaGokwMWKPkBfOhPA/PpZP1Oe2EC7URXBZAIDQcN/BsF/U4ZA
lpc_rms=-28.00
offset=3928
pitch_keycenter=c3
sample=Baritone_trills_major_PP_C3.opus
</region>

<region>
hikey=c4
hivel=127
lokey=b3
loop_end=262607
loop_mode=loop_continuous
loop_start=76571
loop_xfade=22271
lovel=1
lpc=xD6LQlBIFMO0kM5CvQNGwhK4IkKNJHvB30BFQIJBCsHaz0ZBL4FzwWOIDkFKuvc/C9aIQCu8b8APM66/1DwIweTp70C0cLi/hauJQG9dl78kNyXAJ4ABQE7X3MBHhb1A
lpc_rms=-25.83
offset=1186
pitch_keycenter=c4
sample=Baritone_trills_major_PP_C4.opus
</region>

<region>
hikey=d2
hivel=127
lokey=c#2
loop_end=221234
loop_mode=loop_continuous
loop_start=64507
loop_xfade=18762
lovel=1
lpc=0esLQo6ieML42P5Bl311wd/JmkF2UEPBG6N6QD/qxMDUpZZAtlNtv9Z+0T9/uuc/CzcmQHlZSD1y+5LA8vURQDdVIsBwF8g+GM+BPws5yz+3sFrATI5xQH2FpcA6ljtA
lpc_rms=-29.96
offset=5971
pitch_keycenter=d2
sample=Baritone_trills_major_PP_D2.opus
</region>

<region>
hikey=d3
hivel=127
lokey=c#3
loop_end=277836
loop_mode=loop_continuous
loop_start=81011
loop_xfade=23563
lovel=1
lpc=OAUtQgmsoMKKOR1Cpkh7wQcDxkHOQWrBCnwEQSUVIMFPLahA56+hvnDQgr4lo0xAoc51PrtRYMA0q9w/jYGDwDBuSEDz/5e/bAogQG73gT9MwQHAXEEOwMsGaz8tUIg/
lpc_rms=-30.63
offset=5410
pitch_keycenter=d3
sample=Baritone_trills_major_PP_D3.opus
</region>

<region>
hikey=e2
hivel=127
lokey=d#2
loop_end=270157
loop_mode=loop_continuous
loop_start=78772
loop_xfade=22912
lovel=1
lpc=OKsiQnv7mMKO9j1ClcXlweuNzUEMtyTB4mAXvvQ9lsBBWOZAYJ0+wJUNgkBTBSK+bUdJQJK/Jj/RiM/Afr4EQIXYScDq5TNAfhpTvwCbDD/RKaa94vtCv91Sjz+e7MC+
lpc_rms=-32.20
offset=2526
pitch_keycenter=e2
sample=Baritone_trills_major_PP_E2.opus
</region>

<region>
hikey=e3
hivel=127
lokey=d#3
loop_end=268217
loop_mode=loop_continuous
loop_start=78206
loop_xfade=22747
lovel=1
lpc=hYnCQZrgEsIcM0dBeFgZwauFCEEJ4Mw/TiL3P53gIcCRQCE/XbIVwCncfUCrBWPAlWo6QDmGIcBKonJAtSA0wKY8C7+paJq/lq3EP+RDAEDfTTzAFpcxQG+5TcCQdeY/
lpc_rms=-32.93
offset=108
pitch_keycenter=e3
sample=Baritone_trills_major_PP_E3.opus
</region>

<region>
hikey=f#2
hivel=127
lokey=f2
loop_end=274416
loop_mode=loop_continuous
loop_start=80014
loop_xfade=23273
lovel=1
lpc=q8Y8QvgIv8KV4W1CWeyuwVu6P0G6tvU/4Oriv7MX48CnzMBA4p1VwDoApkChqvQ/gDdBQKBW58Dj7e6/z4s5PwDciD/jx9G/VkBWQJZg/LydGIi/6baiPrr2EsDNEuI/
lpc_rms=-31.52
pitch_keycenter=f#2
sample=Baritone_trills_major_PP_F#2.opus
</region>

<region>
hikey=f#3
hivel=127
lokey=f3
loop_end=279831
loop_mode=loop_continuous
loop_start=81593
loop_xfade=23732
lovel=1
lpc=pRQqQsT/qcKVq0pCT5aGwcX/IkHvwcA90nR/QGngI8G9YLRACkPKwGqM5EAE+Km/762YP/M5jT9Sf3q/4regvxIERL/v/fc+RRduP2kgpT7oX+K/S6QUvsorwb+YABNA
lpc_rms=-31.83
offset=3066
pitch_keycenter=f#3
sample=Baritone_trills_major_PP_F#3.opus
</region>

<region>
hikey=g#2
hivel=127
lokey=g2
loop_end=274758
loop_mode=loop_continuous
loop_start=80114
loop_xfade=23302
lovel=1
lpc=RH1gQo5j+cKQycpCBMaGwmznT0KxW5LB/xqMQNATGcHA4CdBzOMAwR0zpkDURBZA/RmlwIJB3EB8twfBRASbvc6MaUD/Xs2/P4Y6QAo18T9yQc/AoWbTQCXcB8HrxZZA
lpc_rms=-29.47
pitch_keycenter=g#2
sample=Baritone_trills_major_PP_G#2.opus
</region>

<region>
hikey=g#3
hivel=127
lokey=g3
loop_end=271187
loop_mode=loop_continuous
loop_start=79073
loop_xfade=22999
lovel=1
lpc=1SodQoBZo8L8/G9CXqwowjSwCUIgzOTA6lFUvmPeicDs9qNAD5y7wMDpYkAR4vm/sJSCP+9G0z9QI6W/hMbqvtfaMD+SMLK/TFJdQNy5SMBcS6k/PkeAv5xfvL/AhPE/
lpc_rms=-33.99
offset=2259
pitch_keycenter=g#3
sample=Baritone_trills_major_PP_G#3.opus
</region>
</group>

<group>
group_label=Group_43-84
lpc_hicc1=84
lpc_locc1=43

<region>
hikey=B4
hivel=127
lokey=a4
loop_end=277408
loop_mode=loop_continuous
loop_start=80886
loop_xfade=23527
lovel=1
lpc=5OJ6QZp6D8K62wxCqtS1wWi4g0GBgBnBoeRgQIwPCcGd2WJB2B9JweMJFEEyQtLAXT5EP+lspkDwkOvAo/b8QDGpvMBluZc/AEzSPwIhQb5Ly+0+nqwPv3MawL5VFEE/
lpc_rms=-22.17
offset=254
pitch_keycenter=A#4
sample=Baritone_trills_major_MF_A#4.opus
</region>

<region>
hikey=c4
hivel=127
lokey=b3
loop_end=281578
loop_mode=loop_continuous
loop_start=82102
loop_xfade=23880
lovel=1
lpc=6blHQf5a88Fpev1BioudwYzLBkGpx1zAy17aQI/Nh8Gn+ZxBtyQxwZb+3T8VZzZAUkmCwOFgiUA86X7AIMu8QMhu0sANrYJAsINswP5ytECA0bnAekx+QCV5KcDvX6A/
lpc_rms=-17.98
offset=4222
pitch_keycenter=c4
sample=Baritone_trills_major_MF_C4.opus
</region>

<region>
hikey=d4
hivel=127
lokey=c#4
loop_end=282445
loop_mode=loop_continuous
loop_start=82355
loop_xfade=23954
lovel=1
lpc=2ZtXQSef+sEJYuNBYXhWwdvpNkANdtg/A09YQAbigcEhCJdBpPgFwWbLDsCNgLxAgHxMwJcZC7/Fr3o/f/kjQHRCqsBQaXZASLWzv2J/Sz9Vn2G/Sounvey2Dj9xJbY9
lpc_rms=-19.33
offset=4993
pitch_keycenter=d4
sample=Baritone_trills_major_MF_D4.opus
</region>

<region>
hikey=e4
hivel=127
lokey=d#4
loop_end=276916
loop_mode=loop_continuous
loop_start=80743
loop_xfade=23485
lovel=1
lpc=+f/DQMOxV8GHL1lBZzkPwV+Hf0A6tDK/4AywPioBDcAxUD9AXnUDwIEjoj9Ts4C/IZZjP0W6Kr54OoK+XJCmPVZkRT7jwyi/pBeeP7c50r9h0hU/EHPqPjbRLL8usBs/
lpc_rms=-21.46
offset=706
pitch_keycenter=e4
sample=Baritone_trills_major_MF_E4.opus
</region>

<region>
hikey=f#4
hivel=127
lokey=f4
loop_end=277036
loop_mode=loop_continuous
loop_start=80778
loop_xfade=23495
lovel=1
lpc=6HMsQcnnv8GGY7dB55BWwTatx0Dlyem/X7X7vpdRY8BcPAlBY/gIwUw1tUD/WfO/8IcVwDxWqkAe+YPArgHyP0BGzD6c2wrAvFx3P7Lnjb+FODZAblSLv6bK+L+G1eo/
lpc_rms=-18.79
offset=1185
pitch_keycenter=f#4
sample=Baritone_trills_major_MF_F#4.opus
</region>

<region>
hikey=g#4
hivel=127
lokey=g4
loop_end=281734
loop_mode=loop_continuous
loop_start=82148
loop_xfade=23893
lovel=1
lpc=f8dRQeD278FM0+pBVyWDwT9jA0HwgJvA6178P3RTmMDE+hlBVFoVwdssr0B/lwTA8SQkwHk510D7Z6zA6Qz9PxkiDT96NyTAdC/HPxKffD+ZEcm/buM1QLXVY8AJiAhA
lpc_rms=-19.33
offset=4094
pitch_keycenter=g#4
sample=Baritone_trills_major_MF_G#4.opus
</region>

<region>
hikey=a#2
hivel=127
lokey=a2
loop_end=277216
loop_mode=loop_continuous
loop_start=80831
loop_xfade=23510
lovel=1
lpc=G8BMQS41BMK0kRlC13Xvwc8soEHLNFDBA5AfQfMWUsFBjGVBJQ/1wDifQD9HJOI/Y/CPwJfs90Ch2MbAPqQmQNzmjr9YNFM/w1UPwNDok0DXpXfAB5/LP3cLM78kX4c+
lpc_rms=-20.61
pitch_keycenter=a#2
sample=Baritone_trills_major_MF_A#2.opus
</region>

<region>
hikey=a#3
hivel=127
lokey=a3
loop_end=283840
loop_mode=loop_continuous
loop_start=82762
loop_xfade=24072
lovel=1
lpc=zP0hQTCbxcHCn9FBjSmGwSn17ED+EDvAHdCwQGRKSMGli05BubDjwO7IzD+tu4w/F0ACv8mqEz+TfSTA2+6RQMZTm8A534JAHrUswAfb3z9BM7O/hBTHPulwgzv1Vjw+
lpc_rms=-20.00
offset=2712
pitch_keycenter=a#3
sample=Baritone_trills_major_MF_A#3.opus
</region>

<region>
hivel=127
key=c2
loop_end=284414
loop_mode=loop_continuous
loop_start=82929
loop_xfade=24121
lovel=1
lpc=rImHQezTI8J4oTBCLeUAwl2SjkGI2sHAnGZwvqYZjcA/xylBdJc4wUdyJEG6CdfAFqpZQO3uqL9yNhFAr/EJwAoZyz/pvcy/ztfePojZRD9t1cq/r2d+P3SGxr5KjT4+
lpc_rms=-19.58
offset=7501
sample=Baritone_trills_major_MF_C2.opus
</region>

<region>
hikey=c3
hivel=127
lokey=b2
loop_end=276696
loop_mode=loop_continuous
loop_start=80679
loop_xfade=23466
lovel=1
lpc=y4IuQbBZ3cG7IABCLk7Cwa+JZEG2gu/AEbm3QKYDGcGNzTBBsb7bwPEdX0BBXEXATSy2P4naST9GRVW+Aqwjv1rhgz/QzPS/wsZIPyZp0z9X0fG/lNjGPx42x78+6i0/
lpc_rms=-19.49
offset=5851
pitch_keycenter=c3
sample=Baritone_trills_major_MF_C3.opus
</region>

<region>
hikey=d2
hivel=127
lokey=c#2
loop_end=209552
loop_mode=loop_continuous
loop_start=52599
loop_xfade=20305
lovel=1
lpc=ZzquQWTfYsKyJoRC/hRPwvZgDkK4WrHBKc8lQVTxOsHuopJBvC10wTQpCUEsDd3AUDddQLlBpkDlMADBWc7mQBWR28BLUF9AzS+SPqEEur1pbiw8l635v3n3OEBi2rO/
lpc_rms=-20.51
offset=4320
pitch_keycenter=d2
sample=Baritone_trills_major_MF_D2.opus
</region>

<region>
hikey=d3
hivel=127
lokey=c#3
loop_end=283960
loop_mode=loop_continuous
loop_start=82797
loop_xfade=24082
lovel=1
lpc=YgQpQV2gzsGl2eJBH1WjwZXQLEGJvoLAy4JQQF/cAMEq1CFBQMLmwPTbikA3cfm/7InevutWpj91s7W+03KOvsuzyD+JNlbA1U3WP3SUtT8KWD3A0smBQAjBesCYk9g/
lpc_rms=-20.33
offset=6109
pitch_keycenter=d3
sample=Baritone_trills_major_MF_D3.opus
</region>

<region>
hikey=e2
hivel=127
lokey=d#2
loop_end=272266
loop_mode=loop_continuous
loop_start=79387
loop_xfade=23090
lovel=1
lpc=E2uCQZGLL8LquFFCLGEYwhCAnUEJGRDBWrLWQPcDWMHAjqFBfEyIwSxX90C5IMy/EnK3vwnpv0AYHg3BS34NQa/iz8CG2DRAXZKpv2ueBUAuKPO/yrCmPygkV7+CUIA+
lpc_rms=-22.20
offset=2718
pitch_keycenter=e2
sample=Baritone_trills_major_MF_E2.opus
</region>

<region>
hikey=e3
hivel=127
lokey=d#3
loop_end=285047
loop_mode=loop_continuous
loop_start=83114
loop_xfade=24174
lovel=1
lpc=sP5OQc19/cE6VQFCz2uewevEDEE+HFvA/zmmQHKNJsHc5CxBe5MGwaKcokDsGE2/xn3PvuYTKj8/ynE+Za+JwOcB2UDImJ/APU8QQJyhpL5J/Vu/bcENPGbctT5Evk4+
lpc_rms=-25.07
offset=138
pitch_keycenter=e3
sample=Baritone_trills_major_MF_E3.opus
</region>

<region>
hikey=f#2
hivel=127
lokey=f2
loop_end=278104
loop_mode=loop_continuous
loop_start=81089
loop_xfade=23586
lovel=1
lpc=R7BOQShQAcKW6Q9Cgl3UwcTui0HNPkXBVpobQZ05WsH0dIdBTPQ1wQdbhEAtJyPAjLpoPxSjikB9taXAi6waQFRrgr/McjE9vDbZvQEUJ0ARAInA+7NZQMBMvL/JPdA9
lpc_rms=-20.94
offset=3403
pitch_keycenter=f#2
sample=Baritone_trills_major_MF_F#2.opus
</region>

<region>
hikey=f#3
hivel=127
lokey=f3
loop_end=279699
loop_mode=loop_continuous
loop_start=81554
loop_xfade=23721
lovel=1
lpc=YExdQV6QBsIGkgRCnLWBwXLDkz8X0JFA7RWEPvPTP8Gojm5Bo524wHNXScCiNa9AjngywHeD4z/RlXDALq+4QCrKmsA7XQVAv3bvvoQnhz9R6hjAFuX1P/43O79jv5U+
lpc_rms=-21.71
offset=4517
pitch_keycenter=f#3
sample=Baritone_trills_major_MF_F#3.opus
</region>

<region>
hikey=g#2
hivel=127
lokey=g2
loop_end=276325
loop_mode=loop_continuous
loop_start=80571
loop_xfade=23435
lovel=1
lpc=cct+QRGHJMKGdjhCgYYDwpi2nEEp+UfBjTJBQb8OmsHtsaJBlmADwS58IMDNjjJAc2l5vmf1KT9unxu/p/QQQKj+hcBRirQ/UYWMPwutOj/g8wLAhx4BQCp+CcD27W4/
lpc_rms=-21.20
offset=3357
pitch_keycenter=g#2
sample=Baritone_trills_major_MF_G#2.opus
</region>

<region>
hikey=g#3
hivel=127
lokey=g3
loop_end=277746
loop_mode=loop_continuous
loop_start=80985
loop_xfade=23555
lovel=1
lpc=apRSQcFBAsL2gwVC+M2awWcrtUB0/gVALsSEvonUEMHYJUlBkmPnwGmgjD7xG4lAUnePwIK+ikDWBKDAFexkQIjqsL+/plY/2EHFv13+TUDbxY7AY2VXQGbvf7+cKAC+
lpc_rms=-22.49
offset=2364
pitch_keycenter=g#3
sample=Baritone_trills_major_MF_G#3.opus
</region>
</group>

<group>
group_label=Group_85-127
lpc_hicc1=127
lpc_locc1=85

<region>
hikey=a#2
hivel=127
lokey=a2
loop_end=277672
loop_mode=loop_continuous
loop_start=80963
loop_xfade=23549
lovel=1
lpc=q+gJQTMMnMGWiqxBtHyTweXOOEHS25DA/KgVQGbPhcAQkZVANXVbwBUNWEDNOiLA3LBVPh1RSj+PzU+/Wo27PzQKEMCEkUxA9oWZwNvGwEDeqIrAW4cgQJt5zL+cT8c+
lpc_rms=-17.65
offset=5025
pitch_keycenter=a#2
sample=Baritone_trills_major_FF_A#2.opus
</region>

<region>
hikey=a#3
hivel=127
lokey=a3
loop_end=276448
loop_mode=loop_continuous
loop_start=80607
loop_xfade=23445
lovel=1
lpc=V1QEQeszn8H/lrZBxsWNwYjFIkFuILvAhJWfQAZumMCGXgRAkTcxP2MPbr9oVVU/LNMwv4YTQT+QRoO/qmQsP9qO3T6i9Ty/onOPPSm3Cz+EMoS/svPjPwac3b95biM/
lpc_rms=-17.29
offset=3616
pitch_keycenter=a#3
sample=Baritone_trills_major_FF_A#3.opus
</region>

<region>
hikey=B4
hivel=127
lokey=a4
loop_end=272594
loop_mode=loop_continuous
loop_start=79483
loop_xfade=23118
lovel=1
lpc=PtACQSM2kMFujKBBDZR6wTB3I0Gq8q3Avd1gQE23pMAiapJAU3w0vjVmasC3VXNA43UdwMT3Lz8IjIQ/FcVNPTYBF8AazDpAsgYDwM4kwD8vOBm+Bt+Tvk0gzDxRKvY+
lpc_rms=-16.11
offset=208
pitch_keycenter=A#4
sample=Baritone_trills_major_FF_A#4.opus
</region>

<region>
hivel=127
key=c2
loop_end=215178
loop_mode=loop_continuous
loop_start=62741
loop_xfade=18249
lovel=1
lpc=T+s8QeUE2cF5AuxBVYDKwZ5jjkFePCHB0Jm7QJwUvsAmar9AZhgVwO3+xL2VYcI+NEQ6vxuirj5Nxg0/xwg8v5tLij9rzJS/F3FmPzCDhr57CnO/zc8uQMy1PsBMoYA/
lpc_rms=-14.61
offset=3721
sample=Baritone_trills_major_FF_C2.opus
</region>

<region>
hikey=c3
hivel=127
lokey=b2
loop_end=262567
loop_mode=loop_continuous
loop_start=76559
loop_xfade=22268
lovel=1
lpc=y0UNQRE7p8H4iLhBAKOQwauRMkG8mrzAPTqdQL385MBrGuZAyJGcwK/BlUAwV5bA8J04QNO4JsAh5FRAMBEDwNCdXb4z2Ls/wzALwIXRGEA85rK+TjAkv9sTgb6pCoY+
lpc_rms=-18.41
offset=2741
pitch_keycenter=c3
sample=Baritone_trills_major_FF_C3.opus
</region>

<region>
hikey=c4
hivel=127
lokey=b3
loop_end=275138
loop_mode=loop_continuous
loop_start=80225
loop_xfade=23334
lovel=1
lpc=1KMdQYFFxsHF0+1B5ujFwZE+ikHifUbBPpIoQaNfKMF9zvpAoqd8wFrhNEDXVXLAZy93QOKntr/AVc2/x0hHQIxV2r81u+U9IFibvxVgTkClEXHAJol1QNj6J8DWESc/
lpc_rms=-15.92
offset=2044
pitch_keycenter=c4
sample=Baritone_trills_major_FF_C4.opus
</region>

<region>
hikey=d2
hivel=127
lokey=c#2
loop_end=224162
loop_mode=loop_continuous
loop_start=65361
loop_xfade=19011
lovel=1
lpc=qhxMQYGu9MGr0QlCk4rnwX6eo0Gf3VTB4VosQXPjUMEAvVlBESkTwaoxmkD/SD/Ab0YqQLgUpr9KAPm+DXvpPyvJFMAaJbY/CiGnvphBmz7HdYy/PWpDQHisPMCmfEQ/
lpc_rms=-17.34
offset=3864
pitch_keycenter=d2
sample=Baritone_trills_major_FF_D2.opus
</region>

<region>
hikey=d3
hivel=127
lokey=c#3
loop_end=283199
loop_mode=loop_continuous
loop_start=82575
loop_xfade=24018
lovel=1
lpc=SdX6QDrMjMF5QpBBjCpOwS9S70Dj95zAVlGrQAbbzsCuG6hA9vpqwGQrh0D+W4DA2ccRQNFOlr9KhoU+DDCjP7YdIMBk9htA/8QFwBd0yD/Tkoq/RFQaQNd4PMAglZo/
lpc_rms=-18.78
offset=4468
pitch_keycenter=d3
sample=Baritone_trills_major_FF_D3.opus
</region>

<region>
hikey=d4
hivel=127
lokey=c#4
loop_end=280907
loop_mode=loop_continuous
loop_start=81907
loop_xfade=23823
lovel=1
lpc=qZcBQQVmlcE2n6hBhUSLwXFCPkHRpdXAJj4OQN6xkL6/p9m/yddPQBQCCMDcgza9ltINP8x90D7MaqY+sYm/v5azAEDFQwbAUC8NP9M0hj9xmI+/G6uhP0BhxL87c18/
lpc_rms=-15.44
offset=3386
pitch_keycenter=d4
sample=Baritone_trills_major_FF_D4.opus
</region>

<region>
hikey=e2
hivel=127
lokey=d#2
loop_end=220794
loop_mode=loop_continuous
loop_start=61214
loop_xfade=20965
lovel=1
lpc=uNIiQaoax8FPGOxB3ObMwQYAjUGPsSTBwU/dQHFzCMEakSVB+RcNwazO00BlLpXA/sQeQFL93b1Vp1K/inEMvGlYxD9UhiXAhZULQI0iQr/QTOK+fVv1P02557+eq7k+
lpc_rms=-19.08
offset=3771
pitch_keycenter=e2
sample=Baritone_trills_major_FF_E2.opus
</region>

<region>
hikey=e3
hivel=127
lokey=d#3
loop_end=277008
loop_mode=loop_continuous
loop_start=80770
loop_xfade=23493
lovel=1
lpc=gzP5QNAGkcEhZI9BxuwhwWAURUCNV1m/4+iYQDY5LsGGTjFBGKenwHAY5D5bLB8+c0XyP2ubfMCQC1RAz82RvkMd+L8y3Ls/KXQPvyrdvD5Ibai+u16cPw4+BcA9ooo/
lpc_rms=-23.45
offset=416
pitch_keycenter=e3
sample=Baritone_trills_major_FF_E3.opus
</region>

<region>
hikey=e4
hivel=127
lokey=d#4
loop_end=270009
loop_mode=loop_continuous
loop_start=78729
loop_xfade=22899
lovel=1
lpc=x3SWQIWXKcFJK0JBMbAdwbY7x0DQZFbARvIOQIQ8EsB2vrw/1x6avm8IILylrC6+RAlQvppQsD+uQPm/RoTBP5oc1L5MFJO+w+06vqhiMT9/3oy/Ara4PzQkib8Qr+I+
lpc_rms=-19.92
offset=811
pitch_keycenter=e4
sample=Baritone_trills_major_FF_E4.opus
</region>

<region>
hikey=f#2
hivel=127
lokey=f2
loop_end=249263
loop_mode=loop_continuous
loop_start=72680
loop_xfade=21140
lovel=1
lpc=nJUNQUQYncH25qZBipKIwQMcM0E7br7A4kd0QDVZosA34JxA24cHwGcfkz2od7c/fE0dwIEl2j8BUhA+RXuav15CtT+w7wW/Pj+Qvxf9LUB86CvAQOAAQOEFob/TjBs+
lpc_rms=-18.01
offset=1227
pitch_keycenter=f#2
sample=Baritone_trills_major_FF_F#2.opus
</region>

<region>
hikey=f#3
hivel=127
lokey=f3
loop_end=280467
loop_mode=loop_continuous
loop_start=81778
loop_xfade=23786
lovel=1
lpc=bZAdQUMDtMFUiK9BNpdIwTnlj0ClXsq/71jyP7wtpMAlo8pAeH9xwDybUUCc3JbAzFZoQFZEOz/Hf1vA94RZQHVm1r/feF+/1IeLP8JKez9Bj/m/pJL9P89e4L+YwD8/
lpc_rms=-18.65
offset=2851
pitch_keycenter=f#3
sample=Baritone_trills_major_FF_F#3.opus
</region>

<region>
hikey=f#4
hivel=127
lokey=f4
loop_end=277599
loop_mode=loop_continuous
loop_start=80942
loop_xfade=23543
lovel=1
lpc=Qg31QAw8isEM6JJBm1pWwfrWDkEew9jAo3O0QI+OocA5mSZAv/JVP1jhKsB0QwFAVazuvg+zIb8s+rk/EOyOv2visT/1ngPAUOCMP5BlfL7byme+hw35P57xJ8AKDrA/
lpc_rms=-15.05
offset=794
pitch_keycenter=f#4
sample=Baritone_trills_major_FF_F#4.opus
</region>

<region>
hikey=g#2
hivel=127
lokey=g2
loop_end=273385
loop_mode=loop_continuous
loop_start=79713
loop_xfade=23185
lovel=1
lpc=aNAWQbzJrMF8+bxBUwuTwZUSIEFg64/AhIqYQGQ4B8EqnhZBOLjswAh/sUAQzUvAMJlzP4RKI795Kso/l4qwv2JRAT8pMHy8uUXFPRY1Db/97fM/ZKTEv2JFIT6tnwe+
lpc_rms=-17.38
offset=1351
pitch_keycenter=g#2
sample=Baritone_trills_major_FF_G#2.opus
</region>

<region>
hikey=g#3
hivel=127
lokey=g3
loop_end=281110
loop_mode=loop_continuous
loop_start=81966
loop_xfade=23841
lovel=1
lpc=2oUPQVxPssG3UchBRriEwQGRrkDF04U+EQarP6962MCmrgxBO73BwBO9QkCnEtu/Q1OwP70XRb6k1NS/T0oOQKCBZr405wzA7eUGQJXHqD19P9O/5OEaQLbK3L9tios+
lpc_rms=-19.82
offset=2537
pitch_keycenter=g#3
sample=Baritone_trills_major_FF_G#3.opus
</region>

<region>
hikey=g#4
hivel=127
lokey=g4
loop_end=279722
loop_mode=loop_continuous
loop_start=81561
loop_xfade=23723
lovel=1
lpc=b+gtQd9excGW0cVBtaB1waukEEHNJJPA3y+2P14FgsAISbFAe+lKvy9RT8BTPzJA9XIPwFfEvD+1Bcw+4ogUP6q467+7O7q+VmdCP88EoT9gWkG/jzBaP+XQEcDLjgBA
lpc_rms=-16.39
offset=4603
pitch_keycenter=g#4
sample=Baritone_trills_major_FF_G#4.opus
</region>
</group>